<svg width="32" height="32" viewBox="0 0 32 32" fill="none" xmlns="http://www.w3.org/2000/svg">
<g clip-path="url(#clip0_2930_405)">
<path d="M16.012 -0.00010574C24.8028 0.0124026 32.0014 7.21719 32.0001 16.0005C32.0001 24.8051 24.7816 32.0162 15.9857 31.9999C7.17236 31.9836 -0.0311693 24.7601 0.000101427 15.9705C0.0313722 7.16215 7.2249 -0.012614 16.012 -0.00010574ZM29.3471 16.0155C29.3734 8.64063 23.4119 2.66917 16.0095 2.65291C8.62708 2.6379 2.65812 8.60061 2.65311 15.9955C2.64811 23.3767 8.55703 29.2994 15.9707 29.3456C23.3193 29.3919 29.3208 23.4092 29.3458 16.0143L29.3471 16.0155Z" fill="black"/>
<path d="M12.4987 14.6922C13.1341 14.6922 13.7708 14.681 14.405 14.6973C14.6464 14.7035 14.6989 14.6222 14.6964 14.3945C14.6864 13.165 14.6889 11.9354 14.6926 10.7058C14.6951 9.93284 15.2443 9.36121 15.9848 9.3512C16.7315 9.34119 17.3044 9.92533 17.3069 10.7084C17.3106 11.9379 17.3131 13.1675 17.3031 14.3971C17.3006 14.626 17.3582 14.6998 17.5971 14.6973C18.8479 14.686 20.0975 14.6885 21.3483 14.6935C21.995 14.696 22.5266 15.1463 22.6242 15.7592C22.7305 16.4209 22.3765 17.0225 21.7598 17.2464C21.5985 17.3052 21.4346 17.3065 21.2683 17.3065C20.06 17.3065 18.8504 17.3165 17.6421 17.299C17.3569 17.2952 17.2994 17.3828 17.3019 17.6505C17.3156 18.88 17.3106 20.1096 17.3056 21.3392C17.3031 22.0134 16.8328 22.5475 16.1849 22.6288C15.4932 22.7151 14.8903 22.3148 14.7239 21.6456C14.6914 21.5168 14.6939 21.3779 14.6926 21.2441C14.6901 20.0358 14.6851 18.8262 14.6964 17.6179C14.6989 17.3778 14.6389 17.299 14.3874 17.3015C13.1579 17.314 11.9283 17.3102 10.6987 17.3065C9.92948 17.304 9.3566 16.7474 9.3516 16.0069C9.34659 15.2614 9.91447 14.701 10.685 14.6922C10.7062 14.6922 10.7263 14.6922 10.7475 14.6922C11.3304 14.6922 11.9145 14.6922 12.4974 14.6922H12.4987Z" fill="black"/>
</g>
<defs>
<clipPath id="clip0_2930_405">
<rect width="32" height="32" fill="white"/>
</clipPath>
</defs>
</svg>
