<svg width="23" height="24" viewBox="0 0 23 24" fill="none" xmlns="http://www.w3.org/2000/svg">
<g clip-path="url(#clip0_44_675)">
<path d="M22.9999 14.6497C22.8624 16.187 22.4022 17.7323 20.2358 18.2286C19.1918 18.4686 18.6727 18.9217 18.5408 20.0085C18.2882 22.0879 17.0647 23.4876 14.8786 23.9056C12.8217 24.2994 11.2137 23.4471 10.0266 21.9018C9.55799 21.2923 9.1595 21.1466 8.40182 21.3246C4.77895 22.1877 2.81177 20.3861 3.39547 16.8046C3.60875 15.4993 3.46844 14.2236 3.14852 12.9399C2.04847 8.53579 3.29445 5.47208 7.16146 2.97742C7.67219 2.64839 8.07068 2.34903 8.15487 1.64513C8.26431 0.728174 9.1146 0.488147 9.7432 1.20283C10.282 1.81234 10.8741 1.87976 11.5897 1.90134C15.5606 2.0227 18.9365 4.60636 19.899 8.33892C20.2891 9.8519 20.8167 11.2327 22.0149 12.3493C22.6632 12.9507 23.0224 13.749 23.0027 14.6551L22.9999 14.6497ZM11.4634 3.80268C7.43647 3.65704 3.9006 7.76986 4.79579 11.0709C5.31214 12.9803 5.80323 14.9788 5.34862 17.05C4.89681 19.1078 6.00809 20.022 8.14645 19.4853C10.3129 18.9433 12.4737 18.3742 14.6373 17.8159C16.2144 17.4087 17.8084 17.0554 19.3602 16.578C21.0327 16.0656 21.5631 14.736 20.508 13.5979C19.189 12.1767 18.4819 10.5477 17.9936 8.72727C17.177 5.68514 14.5812 3.81346 11.4662 3.79998L11.4634 3.80268ZM13.9105 22.1229C15.2519 22.0258 16.0292 21.4083 16.467 20.3591C16.5876 20.0706 16.7336 19.7523 16.4529 19.4853C16.2144 19.2588 15.9226 19.4125 15.6616 19.4772C14.8029 19.6849 13.9357 19.871 13.0939 20.1272C12.6449 20.2648 11.9152 20.1515 11.8788 20.8041C11.8451 21.419 12.4568 21.6806 12.9676 21.8937C13.3015 22.0312 13.6804 22.0717 13.9105 22.1229Z" fill="#2B361C"/>
<path d="M20.3117 3.11765C20.2837 3.56265 20.1349 3.82695 19.8178 3.98607C19.4109 4.18833 18.9844 4.20721 18.6589 3.87549C17.7889 2.99359 16.7534 2.33015 15.6983 1.68019C15.2521 1.4051 14.9125 0.973592 15.2072 0.434206C15.5018 -0.102484 16.0462 -0.051242 16.557 0.102483C18.0303 0.550174 19.0686 1.5804 20.1013 2.60524C20.2444 2.74817 20.2668 3.00438 20.3117 3.11496V3.11765Z" fill="#2B361C"/>
<path d="M-0.000116702 7.88314C0.159839 6.37825 0.844564 5.08102 1.77624 3.89168C2.08773 3.49523 2.54796 3.38465 3.0166 3.64356C3.50489 3.91325 3.60872 4.38521 3.31967 4.79245C2.57602 5.84156 2.19717 7.02551 1.77063 8.20137C1.61067 8.64367 1.2655 8.9673 0.709864 8.87561C0.140196 8.78121 -0.0141479 8.38476 -0.000116702 7.88314Z" fill="#2B361C"/>
</g>
<defs>
<clipPath id="clip0_44_675">
<rect width="23" height="24" fill="white"/>
</clipPath>
</defs>
</svg>
