<svg width="32" height="32" viewBox="0 0 32 32" fill="none" xmlns="http://www.w3.org/2000/svg">
<path d="M16.0101 32C12.9447 32 9.88454 32 6.81916 32C5.33826 32 3.97645 31.6064 2.78033 30.726C0.957676 29.3795 0.030815 27.5358 0.020459 25.2882C-0.00543094 19.9851 -0.00025295 14.6768 0.020459 9.37366C0.030815 6.06957 2.30913 3.37658 5.52467 2.77583C6.24958 2.64118 6.97968 2.68261 7.7046 2.68779C7.94797 2.68779 8.03599 2.62565 8.02046 2.37706C7.99975 2.03526 8.00492 1.68828 8.02046 1.34648C8.05153 0.62144 8.52272 0.113915 9.22693 0.0155167C9.7758 -0.0621657 10.392 0.341783 10.5836 0.911455C10.6871 1.22218 10.6664 1.54845 10.6664 1.86954C10.6664 2.41504 10.9339 2.68779 11.469 2.68779C14.6379 2.68779 17.8017 2.68779 20.9706 2.69297C21.2658 2.69297 21.3797 2.63083 21.359 2.3201C21.3331 1.96794 21.3383 1.6106 21.3745 1.25844C21.4522 0.497148 22.0321 -0.0259139 22.7156 0.00515907C23.4457 0.0414109 23.979 0.616261 23.9997 1.39826C24.0101 1.74007 24.0153 2.08705 23.9997 2.42885C23.9894 2.64118 24.0722 2.68779 24.269 2.68779C25.0509 2.68779 25.8276 2.65672 26.6043 2.79655C29.2554 3.273 31.4819 5.54651 31.891 8.21361C31.9687 8.70042 32.0049 9.18723 32.0049 9.67404C32.0049 14.8425 32.0049 20.011 32.0049 25.1795C32.0049 26.8781 31.4871 28.4007 30.3687 29.685C29.0069 31.2439 27.2619 31.9844 25.2062 31.9948C22.1408 32.0052 19.0807 31.9948 16.0153 31.9948L16.0101 32ZM16.0205 13.3044C11.6865 13.3044 7.3525 13.3044 3.01334 13.2992C2.72337 13.2992 2.65088 13.3821 2.65088 13.6617C2.66124 17.4993 2.65088 21.3316 2.66124 25.1691C2.66124 25.4488 2.67159 25.7336 2.71302 26.0081C3.01852 27.8983 4.70136 29.364 6.78292 29.3536C12.9292 29.3277 19.0807 29.3432 25.2269 29.3432C25.7188 29.3432 26.2056 29.2915 26.6716 29.1257C28.2561 28.5612 29.3745 27.0387 29.359 25.1639C29.3279 21.3368 29.3434 17.5148 29.359 13.6876C29.359 13.3769 29.2865 13.2889 28.9654 13.2889C24.6522 13.2992 20.3389 13.294 16.0256 13.2992L16.0205 13.3044ZM15.9894 10.6891H28.5823C29.0932 10.6891 29.3503 10.4371 29.3538 9.93298C29.3538 9.28562 29.3745 8.63827 29.1415 8.02199C28.5098 6.3078 27.0444 5.3031 25.1648 5.3031C19.1531 5.3031 13.1415 5.3031 7.12984 5.3031C6.77256 5.3031 6.42564 5.32382 6.07353 5.36525C4.56674 5.55169 3.17386 6.78943 2.79586 8.25504C2.61981 8.93346 2.68713 9.62225 2.65088 10.3059C2.63535 10.6218 2.72855 10.7046 3.04441 10.6994C7.35768 10.6891 11.6709 10.6943 15.9842 10.6943L15.9894 10.6891Z" fill="black"/>
<path d="M13.3123 19.9903C13.3123 20.3942 13.3123 20.8034 13.3123 21.2073C13.3071 22.7765 12.3078 23.8951 10.7388 23.9728C9.70323 24.0246 8.65728 24.0505 7.6165 23.9417C6.48252 23.8226 5.46764 22.7713 5.38479 21.632C5.3123 20.591 5.32265 19.5501 5.37443 18.5092C5.43657 17.2041 6.46699 16.0596 7.93754 16.0181C8.96796 15.9871 9.99838 15.9404 11.0288 16.0544C12.2819 16.189 13.2709 17.2766 13.3123 18.5506C13.3278 19.027 13.3123 19.5087 13.3123 19.9903ZM9.33042 21.342C9.70324 21.342 10.0812 21.342 10.454 21.342C10.6197 21.342 10.6974 21.3057 10.6974 21.1193C10.6871 20.3683 10.6922 19.6226 10.6974 18.8717C10.6974 18.7059 10.6301 18.6593 10.4748 18.6593C9.71359 18.6593 8.9576 18.6645 8.19644 18.6593C8.02556 18.6593 7.98932 18.7318 7.98932 18.882C7.9945 19.633 7.9945 20.3787 7.98932 21.1296C7.98932 21.2954 8.05145 21.3471 8.20679 21.342C8.57961 21.3368 8.9576 21.342 9.33042 21.342Z" fill="black"/>
</svg>
