<svg width="32" height="32" viewBox="0 0 32 32" fill="none" xmlns="http://www.w3.org/2000/svg">
<g clip-path="url(#clip0_2930_400)">
<path d="M31.9994 16.0363C31.9994 19.0758 31.2088 21.9029 29.5812 24.4609C29.142 25.1547 29.0696 25.7761 29.2453 26.5217C29.576 27.9405 29.855 29.3748 30.1961 30.7936C30.3873 31.5806 30.4493 32.0622 29.3642 31.679C28.6046 31.4097 27.7675 31.3528 26.9873 31.1301C24.7706 30.5088 22.7089 30.602 20.4095 31.3062C10.2975 34.4078 0.0769032 26.6874 -0.000603695 16.1088C-0.0574421 7.96378 6.39113 0.766368 14.3743 0.0673388C22.9569 -0.68347 30.4441 5.08999 31.7927 13.468C31.9322 14.3275 32.0097 15.1715 31.9994 16.0363ZM26.1812 27.666C26.1089 27.1586 26.1089 26.7599 25.9849 26.4078C25.5767 25.2376 25.7782 24.3366 26.5171 23.2389C29.5915 18.6667 29.7414 13.8304 26.8013 9.19096C23.8973 4.60844 19.5363 2.57349 14.116 3.40197C8.88168 4.19938 5.3422 7.25439 3.82307 12.3236C2.3091 17.3825 3.54404 21.9081 7.45556 25.4758C11.2431 28.9295 15.7385 29.7683 20.5077 27.9353C22.2852 27.2518 23.8818 27.0033 25.6438 27.6091C25.7575 27.6505 25.8919 27.635 26.1812 27.666Z" fill="black"/>
</g>
<defs>
<clipPath id="clip0_2930_400">
<rect width="32" height="32" fill="white"/>
</clipPath>
</defs>
</svg>
