<svg width="25" height="24" viewBox="0 0 25 24" fill="none" xmlns="http://www.w3.org/2000/svg">
<path d="M24.677 12.0279C24.677 14.3079 24.0841 16.4286 22.8635 18.3474C22.5341 18.8679 22.4798 19.334 22.6116 19.8933C22.8596 20.9576 23.0688 22.0335 23.3246 23.0977C23.468 23.6881 23.5145 24.0493 22.7007 23.7619C22.1311 23.5599 21.5033 23.5172 20.9181 23.3502C19.2557 22.8841 17.7095 22.954 15.985 23.4823C8.40514 25.805 0.736142 20.0137 0.678014 12.0823C0.635387 5.97251 5.47162 0.573545 11.4588 0.0491848C17.8955 -0.514017 23.5106 3.81681 24.522 10.1014C24.6267 10.7461 24.6848 11.3792 24.677 12.0279ZM20.3136 20.7517C20.2593 20.3711 20.2593 20.072 20.1663 19.8078C19.8602 18.93 20.0113 18.2542 20.5655 17.4307C22.8712 14.001 22.9836 10.3733 20.7786 6.89305C18.6008 3.45558 15.3301 1.92911 11.265 2.55058C7.33946 3.14874 4.68496 5.44038 3.54565 9.24296C2.41022 13.0378 3.33639 16.4325 6.26991 19.1087C9.11042 21.6994 12.4818 22.3287 16.0586 20.9537C17.3917 20.441 18.5891 20.2545 19.9106 20.709C19.9958 20.74 20.0966 20.7284 20.3136 20.7517Z" fill="black"/>
</svg>
