<svg width="26" height="26" viewBox="0 0 26 26" fill="none" xmlns="http://www.w3.org/2000/svg">
<path d="M11.7349 3.53024H6.72527C4.72124 3.53024 3.71922 3.53024 2.95378 3.92025C2.28048 4.26331 1.73307 4.81072 1.39001 5.48402C1 6.24946 1 7.25148 1 9.25551V19.2747C1 21.2788 1 22.2808 1.39001 23.0462C1.73307 23.7195 2.28048 24.2669 2.95378 24.61C3.71922 25 4.72124 25 6.72527 25H16.7445C18.7485 25 19.7505 25 20.516 24.61C21.1893 24.2669 21.7367 23.7195 22.0798 23.0462C22.4698 22.2808 22.4698 21.2788 22.4698 19.2747V14.2651M8.15656 17.8434H10.1539C10.7374 17.8434 11.0291 17.8434 11.3037 17.7775C11.5471 17.7191 11.7798 17.6227 11.9932 17.4919C12.2339 17.3444 12.4402 17.1381 12.8528 16.7255L24.2589 5.31939C25.247 4.33127 25.247 2.72921 24.2589 1.74109C23.2708 0.752971 21.6687 0.75297 20.6806 1.74109L9.27449 13.1472C8.86191 13.5598 8.65561 13.7661 8.50809 14.0068C8.37729 14.2202 8.28091 14.4529 8.22247 14.6963C8.15656 14.9709 8.15656 15.2626 8.15656 15.8461V17.8434Z" stroke="#D7D9C9" stroke-width="2" stroke-linecap="round" stroke-linejoin="round"/>
</svg>
