<svg width="348" height="378" viewBox="0 0 348 378" fill="none" xmlns="http://www.w3.org/2000/svg">
<g opacity="0.1" clip-path="url(#clip0_44_622)">
<path d="M251.383 0H96.6174C68.1099 0 45 23.111 45 51.6199V295.38C45 323.889 68.1099 347 96.6174 347H251.383C279.89 347 303 323.889 303 295.38V51.6199C303 23.111 279.89 0 251.383 0Z" fill="#131118"/>
<path d="M250.263 10.0693H97.7323C74.5992 10.0693 55.8462 28.8233 55.8462 51.9574V291.949C55.8462 315.083 74.5992 333.837 97.7323 333.837H250.263C273.396 333.837 292.149 315.083 292.149 291.949V51.9574C292.149 28.8233 273.396 10.0693 250.263 10.0693Z" fill="#DDA25D"/>
<path d="M196.032 20.9568H152.653C147.584 20.9568 143.474 25.0655 143.474 30.1338C143.474 35.2021 147.584 39.3107 152.653 39.3107H196.032C201.102 39.3107 205.211 35.2021 205.211 30.1338C205.211 25.0655 201.102 20.9568 196.032 20.9568Z" fill="#131118"/>
<path d="M195.93 34.4116C198.463 34.4116 200.517 32.3578 200.517 29.8244C200.517 27.291 198.463 25.2372 195.93 25.2372C193.396 25.2372 191.343 27.291 191.343 29.8244C191.343 32.3578 193.396 34.4116 195.93 34.4116Z" fill="#36353A"/>
</g>
<rect y="173" width="348" height="205" fill="url(#paint0_linear_44_622)"/>
<defs>
<linearGradient id="paint0_linear_44_622" x1="174" y1="173" x2="174" y2="378" gradientUnits="userSpaceOnUse">
<stop stop-color="#FFFFFC" stop-opacity="0"/>
<stop offset="0.545" stop-color="#FFFFFC" stop-opacity="0.935094"/>
<stop offset="0.9999" stop-color="#FFFFFC"/>
<stop offset="1" stop-color="#FFFFFC"/>
</linearGradient>
<clipPath id="clip0_44_622">
<rect width="258" height="347" fill="white" transform="translate(45)"/>
</clipPath>
</defs>
</svg>
