<svg width="23" height="18" viewBox="0 0 23 18" fill="none" xmlns="http://www.w3.org/2000/svg">
<path d="M11.5121 2.58904C8.02785 2.58904 4.54362 2.58904 1.05532 2.58904C0.5011 2.58904 0.138414 2.22374 0.0283858 1.56621C-0.106093 0.794521 0.329945 0.0410959 0.933063 0C0.98604 0 1.03902 0 1.09199 0C8.03193 0 14.9719 0 21.9118 0C22.4782 0 22.8572 0.365297 22.9754 1.01826C23.114 1.80822 22.6738 2.57991 22.0544 2.58447C20.9827 2.59817 19.9109 2.58447 18.8392 2.58904C16.3941 2.58904 13.9531 2.58904 11.508 2.58904H11.5121Z" fill="black"/>
<path d="M11.5118 15.1775C14.9675 15.1775 18.4192 15.1775 21.8749 15.1775C22.3272 15.1775 22.6818 15.3601 22.8896 15.9035C23.1952 16.698 22.804 17.6524 22.1316 17.762C22.0583 17.7757 21.9808 17.7757 21.9075 17.7757C14.9675 17.7757 8.02761 17.7757 1.09175 17.7757C0.509007 17.7757 0.130021 17.3921 0.0199922 16.7026C-0.0900362 16.004 0.317476 15.2688 0.855393 15.2003C0.981721 15.1821 1.10805 15.1866 1.23845 15.1866C4.66156 15.1866 8.08874 15.1866 11.5118 15.1866V15.1775Z" fill="black"/>
<path d="M11.4992 7.5919C14.9753 7.5919 18.4514 7.5919 21.9274 7.5919C22.4857 7.5919 22.8729 7.97546 22.9747 8.62843C23.0929 9.37729 22.6773 10.1079 22.0945 10.1718C22.0293 10.1809 21.96 10.1764 21.8908 10.1764C14.959 10.1764 8.03126 10.1764 1.09948 10.1764C0.508584 10.1764 0.117373 9.79738 0.0154944 9.12615C-0.0945339 8.38186 0.329279 7.65126 0.907947 7.59647C0.997599 7.58733 1.08725 7.5919 1.1769 7.5919C4.61631 7.5919 8.05572 7.5919 11.4951 7.5919H11.4992Z" fill="black"/>
</svg>
