<svg width="26" height="24" viewBox="0 0 26 24" fill="none" xmlns="http://www.w3.org/2000/svg">
  <g clip-path="url(#clip0_75_543)">
    <path d="M25.678 7.40175C25.6817 10.0487 25.0483 11.9076 23.6268 13.4536C20.6555 16.6888 17.6729 19.9127 14.6791 23.1215C13.612 24.2677 12.2055 24.3017 11.1309 23.1667C8.05032 19.9089 4.91317 16.6926 1.97208 13.3103C-1.82871 8.94017 0.135789 1.97583 5.52024 0.354466C8.08803 -0.422282 10.3429 0.252659 12.3451 1.93058C12.6844 2.21715 12.8805 2.41322 13.333 2.01354C15.6934 -0.0716146 18.3856 -0.622125 21.255 0.761693C24.215 2.18699 25.5573 4.72838 25.6817 7.40175H25.678ZM2.37554 7.30372C2.37554 9.48691 2.83932 10.8519 3.88756 11.9868C6.67782 15.0071 9.4907 18.001 12.2621 21.0363C12.7674 21.5906 13.0087 21.4963 13.4762 20.9873C16.1685 18.05 18.8984 15.1504 21.6208 12.2432C22.5257 11.278 23.0876 10.1618 23.31 8.85344C23.6871 6.61747 22.5144 4.0723 20.565 2.99767C18.5666 1.89665 16.4588 2.25863 14.566 4.03082C13.4876 5.04135 12.2319 5.04135 11.1309 4.00066C10.5314 3.43506 9.90924 2.92603 9.11741 2.65831C5.75024 1.50828 2.40193 4.13263 2.37177 7.30372H2.37554Z" fill="currentColor"/>
  </g>
  <defs>
    <clipPath id="clip0_75_543">
      <rect width="25.6779" height="24" fill="white"/>
    </clipPath>
  </defs>
</svg>
