<svg width="32" height="32" viewBox="0 0 32 32" fill="none" xmlns="http://www.w3.org/2000/svg">
<path d="M15.9819 32C11.6284 32 7.28001 32 2.92648 32C0.806592 32 0.0155114 31.2331 0.0103409 29.1606C0 24.4559 0.0206819 19.7565 0 15.0518C0 14.0414 0.274035 13.2435 1.05477 12.5492C5.37211 8.715 9.65843 4.84453 13.9654 0.999973C15.4649 -0.336815 16.499 -0.331634 18.0139 1.0207C22.3571 4.88598 26.6796 8.77199 31.0228 12.6373C31.7208 13.259 31.9948 14.0311 31.9948 14.9326C31.9948 19.7202 32.0155 24.5077 31.9845 29.2953C31.9741 31.2124 31.121 31.9896 29.1718 31.9948C24.7769 32.0052 20.382 31.9948 15.9871 31.9948L15.9819 32ZM3.16949 21.8445C3.16949 23.8704 3.20052 25.9015 3.15398 27.9274C3.13847 28.6632 3.37631 28.8912 4.10535 28.8756C6.127 28.8342 8.15382 28.829 10.1806 28.8756C10.9562 28.8963 11.2406 28.6995 11.2147 27.8756C11.1527 26.0673 11.1785 24.2539 11.1992 22.4404C11.2302 19.6943 13.3398 17.6114 16.0439 17.6269C18.6602 17.6425 20.7284 19.7357 20.7594 22.4352C20.7801 24.202 20.8163 25.9741 20.7439 27.7409C20.7077 28.6787 21.0386 28.9067 21.9176 28.8808C23.8565 28.8186 25.7954 28.8186 27.7292 28.8808C28.5978 28.9067 28.8047 28.6062 28.7943 27.7824C28.7581 23.9015 28.7478 20.0207 28.7943 16.1399C28.8047 15.2746 28.5203 14.6995 27.8998 14.1502C24.1667 10.829 20.4388 7.50256 16.7523 4.13469C16.1318 3.56992 15.7647 3.6321 15.1857 4.15541C11.4216 7.56992 7.6316 10.9585 3.83648 14.3419C3.35563 14.772 3.12813 15.2228 3.14364 15.8963C3.19535 17.8808 3.15915 19.8653 3.15915 21.8497L3.16949 21.8445ZM17.6209 25.3264C17.6209 24.4248 17.6468 23.5233 17.6158 22.6217C17.5796 21.5906 17.0936 20.8601 15.9974 20.8497C14.8909 20.8394 14.3894 21.5751 14.3687 22.6062C14.3325 24.4093 14.3532 26.2124 14.3584 28.0207C14.3584 28.4041 14.3274 28.7461 14.8909 28.8653C17.0367 29.316 17.6261 28.886 17.6261 26.7461C17.6261 26.2746 17.6261 25.8031 17.6261 25.3264H17.6209Z" fill="black"/>
</svg>
