<svg width="39" height="50" viewBox="0 0 39 50" fill="none" xmlns="http://www.w3.org/2000/svg">
<path d="M3.85724 50C2.81582 50 1.91182 49.6193 1.14832 48.855C0.384808 48.0937 0 47.1923 0 46.1538V20.7169C0 19.651 0.381754 18.7435 1.14832 17.9944C1.91182 17.2453 2.81582 16.8707 3.85724 16.8707H8.67956V10.7924C8.67956 7.78671 9.73015 5.23783 11.8313 3.1427C13.9325 1.04757 16.4948 0 19.5122 0C22.5296 0 25.0858 1.04757 27.1809 3.13966C29.276 5.23174 30.3235 7.78366 30.3235 10.7893V16.8677H35.1458C36.1872 16.8677 37.0912 17.2422 37.8547 17.9914C38.6182 18.7405 39.0031 19.648 39.0031 20.7138V46.1508C39.0031 47.1892 38.6213 48.0906 37.8547 48.8519C37.0912 49.6133 36.1872 49.9969 35.1458 49.9969H3.85724V50ZM3.85724 47.8622H35.1428C35.6436 47.8622 36.0529 47.7008 36.3735 47.3811C36.6942 47.0613 36.8561 46.6502 36.8561 46.1538V20.7169C36.8561 20.2174 36.6942 19.8094 36.3735 19.4896C36.0529 19.1699 35.6406 19.0085 35.1428 19.0085H3.85724C3.35638 19.0085 2.94714 19.1699 2.62647 19.4896C2.30579 19.8094 2.14393 20.2205 2.14393 20.7169V46.1538C2.14393 46.6533 2.30579 47.0613 2.62647 47.3811C2.94714 47.7008 3.35944 47.8622 3.85724 47.8622ZM19.5122 37.4992C20.633 37.4992 21.592 37.1064 22.3861 36.3177C23.1801 35.529 23.5771 34.5788 23.5771 33.4673C23.5771 32.3558 23.1771 31.4483 22.3738 30.617C21.5706 29.7856 20.6086 29.3684 19.4878 29.3684C18.367 29.3684 17.408 29.7856 16.6139 30.617C15.8199 31.4483 15.4229 32.4106 15.4229 33.5008C15.4229 34.591 15.8229 35.532 16.6262 36.3177C17.4294 37.1034 18.3914 37.4992 19.5122 37.4992ZM10.8204 16.8677H28.1796V10.7893C28.1796 8.38663 27.3366 6.34326 25.6508 4.65924C23.965 2.97521 21.9188 2.13472 19.5122 2.13472C17.1056 2.13472 15.0533 2.97521 13.3614 4.65924C11.6695 6.34022 10.8204 8.38358 10.8204 10.7893V16.8677Z" fill="black"/>
</svg>
