<svg width="175" height="151" viewBox="0 0 175 151" fill="none" xmlns="http://www.w3.org/2000/svg">
<path d="M172.363 106.518C167.613 98.2278 162.674 90.0453 158.073 81.6799C156.343 78.5314 154.219 77.2553 150.617 77.2895C143.56 77.3568 136.502 77.3689 129.445 77.3689C139.718 59.2865 149.314 40.8189 160.372 23.19C162.348 20.0415 161.527 19.1274 158.091 19.1496C149.169 19.2089 140.191 19.7298 131.342 18.9354C124.195 18.2918 120.941 21.751 118.076 27.3049C112.264 38.5674 105.566 49.1351 98.9875 61.1237C96.016 66.5398 92.8755 71.9398 89.5189 77.2221C79.1842 77.2221 68.8484 77.2221 58.5117 77.2221C53.1218 77.2161 52.994 76.9858 55.7494 72.1258C57.7605 68.5841 59.8052 65.0646 61.8834 61.5672C73.333 42.3605 83.4593 22.3835 95.3533 3.42925C97.1915 0.499984 95.9516 0.0424427 93.1652 0.0665767C82.6689 0.138979 72.1706 0.24356 61.6813 0.0072472C58.2553 -0.0701828 56.218 0.880095 54.6161 3.97227C51.2353 10.5015 47.577 16.893 43.8774 23.2534C34.0589 40.1452 24.2246 57.0283 14.3746 73.9027H-28.7107C-29.5831 73.9027 -30.4197 74.2492 -31.0366 74.8661C-31.6535 75.4829 -32 76.3196 -32 77.1919V105.228C-32 106.1 -31.6535 106.937 -31.0366 107.554C-30.4197 108.17 -29.5831 108.517 -28.7107 108.517H-5.92015C-8.30339 113.017 -10.6605 117.53 -13.0598 122.02C-14.7411 125.166 -14.8528 127.579 -12.7833 130.614C-7.21233 138.794 -1.97323 147.198 3.4167 155.501C6.36407 160.042 6.85077 160.026 9.3577 155.271C14.9125 144.729 20.4664 134.186 26.0192 123.644C27.3667 121.275 28.6978 118.895 30.0124 116.504C31.6465 113.519 33.5863 112.223 37.0324 112.297C46.1148 112.492 55.2023 112.358 64.2838 112.372C70.4178 112.382 70.4269 112.398 67.4403 117.577C56.3346 136.836 45.2832 156.126 34.0549 175.312C32.2599 178.381 32.0437 180.785 33.9543 183.908C39.0918 192.328 43.8895 200.956 48.837 209.491C51.544 214.16 52.0247 214.168 54.7076 209.525C72.249 179.15 89.8648 148.817 107.215 118.334C109.684 113.995 112.353 112.151 117.472 112.251C134.541 112.578 151.618 112.379 168.692 112.376C175.473 112.376 175.612 112.187 172.363 106.515" fill="#9FA482" fill-opacity="0.32"/>
</svg>
