<svg width="32" height="32" viewBox="0 0 32 32" fill="none" xmlns="http://www.w3.org/2000/svg">
<g clip-path="url(#clip0_2930_402)">
<path d="M15.9413 32C7.01814 31.9577 -0.0234603 24.8612 5.87432e-05 15.9247C0.0235778 7.15769 7.24863 -0.0187866 16.0259 3.69456e-05C24.8221 0.0188605 32.0377 7.30827 32.0001 16.1318C31.9624 24.9177 24.7562 32.0377 15.9413 31.9953V32ZM25.5417 24.9695C25.918 24.5224 26.2332 24.1789 26.5107 23.8024C30.3772 18.6306 29.7752 11.073 25.156 6.65416C20.2452 1.96239 12.6345 1.68945 7.51674 6.02357C2.09325 10.6212 1.31712 18.8424 5.78104 24.2542C6.19027 24.753 6.39724 25.0306 6.91936 24.273C8.0859 22.5836 9.79809 21.8259 11.8537 21.8353C14.3984 21.8447 16.9479 21.9012 19.4926 21.8212C22.0562 21.7412 24.0741 22.6118 25.5417 24.9647V24.9695ZM15.946 24.7671C14.5348 24.7671 13.1237 24.7577 11.7125 24.7671C10.72 24.7765 9.89217 25.1247 9.26656 25.9389C8.75855 26.6071 8.77736 27.0589 9.59583 27.4824C13.6176 29.5624 17.6723 29.713 21.7693 27.7506C22.2632 27.5153 23.0675 27.4118 23.0299 26.72C22.9923 26 22.3949 25.4918 21.7599 25.1295C21.1954 24.8095 20.5745 24.7577 19.9442 24.7577C18.613 24.7577 17.2771 24.7577 15.946 24.7577V24.7671Z" fill="black"/>
<path d="M8.72075 13.1859C8.70664 9.12001 11.9429 5.84943 15.9834 5.85413C19.9534 5.85413 23.2461 9.1059 23.279 13.0635C23.312 17.0635 19.9911 20.4094 15.9881 20.4141C12.0275 20.4141 8.73956 17.1483 8.72545 13.1906L8.72075 13.1859ZM20.3109 13.1247C20.3109 10.7247 18.42 8.78119 16.0352 8.73413C13.6833 8.69178 11.5901 10.753 11.5854 13.12C11.5854 15.4682 13.5516 17.4494 15.9176 17.4824C18.3636 17.5153 20.3062 15.5859 20.3062 13.1247H20.3109Z" fill="black"/>
</g>
<defs>
<clipPath id="clip0_2930_402">
<rect width="32" height="32" fill="white"/>
</clipPath>
</defs>
</svg>
