<svg width="21" height="22" viewBox="0 0 21 22" fill="none" xmlns="http://www.w3.org/2000/svg">
<path d="M16.7152 18.3327C16.2284 18.3327 15.7379 18.3399 15.251 18.3291C15.096 18.3291 15.0419 18.3795 15.0022 18.5233C14.6055 20.0549 13.657 21.1048 12.1964 21.6944C10.4473 22.4027 8.27268 21.8418 7.07175 20.3857C6.61734 19.8356 6.27474 19.2316 6.11966 18.5305C6.0872 18.3795 6.02229 18.3255 5.86 18.3255C4.86825 18.3327 3.87649 18.3327 2.88473 18.3255C2.27525 18.3255 1.69462 18.2033 1.19334 17.8402C0.129451 17.0744 -0.187911 16.0281 0.0933874 14.7769C0.692048 12.0984 1.29792 9.42344 1.89298 6.74489C2.26083 5.08743 3.0362 3.6421 4.24795 2.45563C5.53903 1.19725 7.08978 0.417062 8.87855 0.118647C10.7106 -0.186959 12.4597 0.0934793 14.1078 0.913221C15.6838 1.69701 16.8919 2.88348 17.7575 4.42229C18.3057 5.39663 18.5725 6.46446 18.8682 7.52509C19.5426 9.93398 20.2134 12.3465 20.8806 14.7554C21.3134 16.3157 20.4767 17.8186 18.944 18.2321C18.6663 18.3076 18.3778 18.3255 18.0893 18.3255C17.6276 18.3291 17.1696 18.3255 16.708 18.3255L16.7152 18.3327ZM10.4942 16.5099C13.0367 16.5099 15.5828 16.5099 18.1253 16.5099C18.2552 16.5099 18.3814 16.5171 18.5076 16.4775C19.0522 16.3085 19.2902 15.8304 19.1207 15.2299C18.3489 12.4543 17.5772 9.67871 16.809 6.90309C16.3618 5.28158 15.471 3.96928 14.0826 3.00932C13.1557 2.36934 12.1315 1.99542 11.0099 1.87318C9.50246 1.7078 8.09236 2.00261 6.79766 2.78281C5.18561 3.75715 4.13254 5.17013 3.70699 7.00016C3.06145 9.76859 2.45918 12.5478 1.8497 15.327C1.69462 16.0353 2.10936 16.5171 2.84146 16.5171C5.39117 16.5171 7.9445 16.5171 10.4942 16.5171V16.5099ZM10.5736 18.3327C9.77654 18.3327 8.97953 18.3363 8.18252 18.3327C7.98777 18.3327 7.96974 18.3795 8.04908 18.5449C8.18252 18.8253 8.34841 19.077 8.56119 19.3071C9.87752 20.7416 12.2974 20.3318 13.0764 18.5449C13.1485 18.3795 13.1413 18.3291 12.9429 18.3291C12.1532 18.3363 11.3634 18.3291 10.5736 18.3291V18.3327Z" fill="black"/>
</svg>
