<svg width="258" height="347" viewBox="0 0 258 347" fill="none" xmlns="http://www.w3.org/2000/svg">
<g opacity="0.1" clip-path="url(#clip0_44_615)">
<path d="M206.383 0H51.6174C23.1099 0 0 23.111 0 51.6199V295.38C0 323.889 23.1099 347 51.6174 347H206.383C234.89 347 258 323.889 258 295.38V51.6199C258 23.111 234.89 0 206.383 0Z" fill="#131118"/>
<path d="M205.263 10.0693H52.7323C29.5992 10.0693 10.8462 28.8233 10.8462 51.9574V291.949C10.8462 315.083 29.5992 333.837 52.7323 333.837H205.263C228.396 333.837 247.149 315.083 247.149 291.949V51.9574C247.149 28.8233 228.396 10.0693 205.263 10.0693Z" fill="#DDA25D"/>
<path d="M151.032 20.9568H107.653C102.584 20.9568 98.4741 25.0655 98.4741 30.1338C98.4741 35.2021 102.584 39.3107 107.653 39.3107H151.032C156.102 39.3107 160.211 35.2021 160.211 30.1338C160.211 25.0655 156.102 20.9568 151.032 20.9568Z" fill="#131118"/>
<path d="M150.93 34.4116C153.463 34.4116 155.517 32.3578 155.517 29.8244C155.517 27.291 153.463 25.2372 150.93 25.2372C148.396 25.2372 146.343 27.291 146.343 29.8244C146.343 32.3578 148.396 34.4116 150.93 34.4116Z" fill="#36353A"/>
</g>
<defs>
<clipPath id="clip0_44_615">
<rect width="258" height="347" fill="white"/>
</clipPath>
</defs>
</svg>
