<svg width="14" height="14" viewBox="0 0 14 14" fill="none" xmlns="http://www.w3.org/2000/svg">
<path d="M3.14712 5.34117C3.78254 5.34117 4.41922 5.32992 5.05339 5.34618C5.2948 5.35243 5.34733 5.27113 5.34483 5.04348C5.33483 3.81391 5.33733 2.58434 5.34108 1.35478C5.34358 0.581762 5.8927 0.0101333 6.63319 0.000126637C7.37993 -0.00988001 7.95281 0.574258 7.95532 1.35728C7.95907 2.58684 7.96157 3.81641 7.95156 5.04598C7.94906 5.27488 8.0066 5.34868 8.24551 5.34618C9.49634 5.33492 10.7459 5.33742 11.9967 5.34242C12.6434 5.34493 13.175 5.79522 13.2726 6.40813C13.3789 7.06982 13.0249 7.67147 12.4083 7.89537C12.2469 7.95416 12.0831 7.95541 11.9167 7.95541C10.7084 7.95541 9.49884 7.96542 8.29054 7.9479C8.00535 7.94415 7.94781 8.03171 7.95031 8.29939C7.96407 9.52895 7.95907 10.7585 7.95407 11.9881C7.95156 12.6623 7.48125 13.1964 6.83332 13.2777C6.14161 13.364 5.53871 12.9637 5.37235 12.2945C5.33983 12.1657 5.34233 12.0269 5.34108 11.893C5.33858 10.6847 5.33357 9.47517 5.34483 8.26687C5.34733 8.02671 5.28729 7.9479 5.03588 7.95041C3.80631 7.96291 2.57674 7.95916 1.34718 7.95541C0.577916 7.95291 0.00503613 7.39629 3.28038e-05 6.6558C-0.00497052 5.9103 0.562906 5.34993 1.33342 5.34117C1.35468 5.34117 1.3747 5.34117 1.39596 5.34117C1.97885 5.34117 2.56299 5.34117 3.14587 5.34117H3.14712Z" fill="black"/>
</svg>
