<svg width="32" height="18" viewBox="0 0 32 18" fill="none" xmlns="http://www.w3.org/2000/svg">
<path d="M8.88889 2.66708C8.51128 2.66708 8.19466 2.53807 7.93902 2.28121C7.68338 2.02435 7.55555 1.70534 7.55555 1.32533C7.55555 0.945324 7.68338 0.629825 7.93902 0.37766C8.19466 0.125496 8.51128 0 8.88889 0H30.6667C31.0443 0 31.3609 0.129014 31.6165 0.38587C31.8722 0.642726 32 0.961744 32 1.34175C32 1.72176 31.8722 2.03725 31.6165 2.28942C31.3609 2.54158 31.0443 2.66708 30.6667 2.66708H8.88889ZM8.88889 10.2238C8.51128 10.2238 8.19466 10.0948 7.93902 9.83793C7.68338 9.58108 7.55555 9.26206 7.55555 8.88206C7.55555 8.50205 7.68338 8.18655 7.93902 7.93439C8.19466 7.68222 8.51128 7.55673 8.88889 7.55673H30.6667C31.0443 7.55673 31.3609 7.68574 31.6165 7.9426C31.8722 8.19945 32 8.51847 32 8.89848C32 9.27848 31.8722 9.59398 31.6165 9.84614C31.3609 10.0983 31.0443 10.2238 30.6667 10.2238H8.88889ZM8.88889 17.7805C8.51128 17.7805 8.19466 17.6515 7.93902 17.3947C7.68338 17.1378 7.55555 16.8188 7.55555 16.4388C7.55555 16.0588 7.68338 15.7433 7.93902 15.4911C8.19466 15.2389 8.51128 15.1135 8.88889 15.1135H30.6667C31.0443 15.1135 31.3609 15.2425 31.6165 15.4993C31.8722 15.7562 32 16.0752 32 16.4552C32 16.8352 31.8722 17.1507 31.6165 17.4029C31.3609 17.655 31.0443 17.7805 30.6667 17.7805H8.88889ZM1.33333 2.66708C0.978012 2.66708 0.66725 2.53337 0.39988 2.26713C0.132509 2.0009 0 1.68188 0 1.31126C0 0.940632 0.133682 0.629825 0.39988 0.37766C0.666077 0.125496 0.985048 0 1.35561 0C1.72618 0 2.03693 0.127841 2.28906 0.383524C2.54119 0.639207 2.66667 0.955879 2.66667 1.33354C2.66667 1.68892 2.53884 1.99972 2.2832 2.26713C2.02755 2.53337 1.71093 2.66708 1.33333 2.66708ZM1.33333 10.2238C0.978012 10.2238 0.66725 10.0901 0.39988 9.82386C0.132509 9.55762 0 9.23861 0 8.86798C0 8.49736 0.133682 8.18655 0.39988 7.93439C0.666077 7.68222 0.985048 7.55673 1.35561 7.55673C1.72618 7.55673 2.03693 7.68457 2.28906 7.94025C2.54119 8.19593 2.66667 8.51261 2.66667 8.89027C2.66667 9.24564 2.53884 9.55645 2.2832 9.82386C2.02755 10.0901 1.71093 10.2238 1.33333 10.2238ZM1.33333 17.7805C0.978012 17.7805 0.66725 17.6468 0.39988 17.3806C0.132509 17.1143 0 16.7953 0 16.4247C0 16.0541 0.133682 15.7433 0.39988 15.4911C0.666077 15.2389 0.985048 15.1135 1.35561 15.1135C1.72618 15.1135 2.03693 15.2413 2.28906 15.497C2.54119 15.7527 2.66667 16.0693 2.66667 16.447C2.66667 16.8024 2.53884 17.1132 2.2832 17.3806C2.02755 17.6468 1.71093 17.7805 1.33333 17.7805Z" fill="#D9D9D9"/>
</svg>
