<svg width="30" height="30" viewBox="0 0 30 30" fill="none" xmlns="http://www.w3.org/2000/svg">
<path d="M7.02323 30C5.86573 29.9578 4.71972 29.9565 3.59288 29.6909C1.82979 29.2744 0.705508 28.2015 0.340115 26.4221C-0.113433 24.2123 -0.0968241 21.9807 0.291566 19.7658C0.632685 17.8255 1.81063 16.6197 3.76408 16.2684C5.97688 15.8699 8.20501 15.8584 10.4114 16.2952C12.3189 16.6733 13.4304 17.9123 13.7536 19.8092C14.119 21.9514 14.151 24.1126 13.7281 26.2484C13.3014 28.4033 11.9918 29.5299 9.80712 29.8199C8.87831 29.9425 7.94566 29.9629 7.02451 29.9987L7.02323 30ZM7.16249 27.9766C7.69014 27.9664 8.36982 27.983 9.04695 27.9C9.20409 27.8808 9.36252 27.8579 9.51966 27.8361C10.9723 27.642 11.551 27.0914 11.8232 25.6672C11.9113 25.2061 11.9522 24.7411 11.9727 24.2749C12.0314 22.9247 12.0468 21.5758 11.8104 20.2371C11.6392 19.2638 11.1844 18.528 10.1546 18.2866C9.88761 18.224 9.61804 18.1614 9.34463 18.1282C7.77702 17.9392 6.20557 17.9238 4.64307 18.1346C2.89403 18.3709 2.43027 18.9266 2.20796 20.3789C1.93073 22.1928 1.92817 24.0245 2.25012 25.8383C2.4571 27.0097 3.01668 27.5308 4.18952 27.7735C5.12089 27.9664 6.06503 27.9741 7.16249 27.9754V27.9766Z" fill="#D9D9D9"/>
<path d="M0.0211099 6.99875C0.0658258 5.87212 0.0696586 4.73655 0.321346 3.61631C0.753174 1.69517 1.96562 0.610692 3.86157 0.250477C5.22477 -0.00882607 6.60458 -0.0164901 7.98694 0.0307721C8.8046 0.0588739 9.61588 0.122742 10.4169 0.302849C12.2196 0.707771 13.3439 1.81141 13.7055 3.6112C14.1437 5.7891 14.1232 7.99126 13.754 10.1768C13.4167 12.1784 12.2068 13.4047 10.2036 13.7483C8.06487 14.1162 5.90573 14.1507 3.77342 13.7253C1.613 13.2948 0.489989 11.9907 0.198696 9.80511C0.074769 8.87519 0.0530499 7.94016 0.0185547 6.9962L0.0211099 6.99875ZM2.03972 6.99109C2.04355 7.83031 2.0576 8.66826 2.17642 9.50365C2.38467 10.9713 2.90465 11.5615 4.37133 11.8118C6.07948 12.1043 7.80169 12.0839 9.51111 11.8463C11.0608 11.6317 11.5719 11.1425 11.8274 9.59306C12.1123 7.8648 12.111 6.11482 11.821 4.38528C11.5732 2.90355 11.0864 2.40155 9.63504 2.18695C7.83235 1.92126 6.0156 1.90721 4.21419 2.22527C2.99408 2.44114 2.48943 2.97763 2.23774 4.19623C2.04738 5.11976 2.04355 6.05351 2.03972 6.98853V6.99109Z" fill="#D9D9D9"/>
<path d="M23.009 0C24.1307 0.0447075 25.2653 0.0459849 26.3832 0.304011C28.1795 0.717875 29.3037 1.80746 29.6679 3.61492C30.1125 5.82602 30.0984 8.05757 29.7011 10.2699C29.3548 12.1975 28.1705 13.3816 26.2324 13.7341C24.0937 14.1225 21.9397 14.1199 19.801 13.7507C17.8181 13.4084 16.598 12.2077 16.2543 10.2137C15.8749 8.00775 15.8545 5.78515 16.3003 3.58682C16.6875 1.67589 17.9433 0.614409 19.8265 0.247807C20.8741 0.0434302 21.9358 0.035766 23.009 0.00127739V0ZM27.9597 6.99481C27.9623 6.03807 27.9393 5.08388 27.7566 4.13864C27.5496 3.06693 26.9287 2.43081 25.8555 2.22899C25.4594 2.1549 25.0608 2.08848 24.6584 2.0706C23.1419 2.00417 21.6241 1.94414 20.1191 2.22899C19.0996 2.42187 18.4505 2.98774 18.2372 4.03772C18.126 4.58188 18.0583 5.12731 18.0315 5.67913C17.9663 7.03951 17.951 8.3999 18.1899 9.74879C18.4135 11.0095 18.9859 11.5754 20.2353 11.8079C20.717 11.8973 21.2012 11.9471 21.6893 11.9676C23.0371 12.0263 24.385 12.0442 25.7214 11.8066C26.9645 11.5856 27.5113 11.0427 27.7617 9.81904C27.9533 8.88529 27.9572 7.94005 27.9597 6.99481Z" fill="#D9D9D9"/>
<path d="M22.9885 30.0001C21.8438 29.9567 20.6977 29.9554 19.5709 29.6935C17.7605 29.2733 16.6337 28.162 16.2862 26.343C15.8608 24.1204 15.8608 21.8787 16.2836 19.6548C16.6375 17.7898 17.7925 16.6389 19.6527 16.2851C21.8629 15.8649 24.091 15.8585 26.3 16.2851C28.2471 16.6607 29.3714 17.869 29.7291 19.8298C29.9782 21.1966 29.9948 22.5774 29.9463 23.9608C29.9182 24.7795 29.8556 25.5919 29.6754 26.3941C29.2436 28.314 28.0248 29.387 26.1275 29.7536C25.0889 29.9541 24.0387 29.9605 22.9885 29.9988V30.0001ZM22.9668 27.9768C23.9224 27.9768 24.8768 27.9691 25.8196 27.7737C26.9848 27.5322 27.5176 26.9996 27.7578 25.8321C27.837 25.4463 27.897 25.0567 27.9123 24.6659C27.9724 23.1688 28.0312 21.6717 27.7629 20.1836C27.5674 19.1004 26.9771 18.4336 25.8797 18.2229C25.3571 18.122 24.8321 18.0594 24.3019 18.0351C22.9425 17.9712 21.5844 17.9559 20.2378 18.1948C18.9807 18.4183 18.4236 18.9867 18.186 20.2462C18.0953 20.7278 18.048 21.2144 18.0263 21.7024C17.9662 23.0526 17.9509 24.4027 18.1885 25.7401C18.4096 26.9855 18.9462 27.5246 20.1765 27.7788C21.0976 27.9691 22.0316 27.9729 22.9655 27.9768H22.9668Z" fill="#D9D9D9"/>
</svg>
