<svg width="30" height="30" viewBox="0 0 30 30" fill="none" xmlns="http://www.w3.org/2000/svg">
<path d="M15.0001 0.00244512C15.6958 0.050125 16.2007 0.385107 16.4794 1.06118C17.0018 2.3302 17.5219 3.59922 18.0431 4.86946C18.6253 6.28885 19.211 7.7058 19.7826 9.12886C19.8587 9.31713 19.9571 9.39415 20.1422 9.41005C21.5407 9.53475 22.9393 9.66067 24.3367 9.79271C25.7434 9.92597 27.1513 10.0641 28.5569 10.2096C29.2375 10.2793 29.6978 10.6778 29.9086 11.3429C30.1253 12.0251 29.952 12.6376 29.4378 13.1132C27.8682 14.5644 26.2881 16.0045 24.7103 17.4484C24.1891 17.9252 23.6737 18.4069 23.1419 18.8702C22.9639 19.0255 22.91 19.1661 22.9639 19.4106C23.5835 22.2103 24.1867 25.0136 24.8017 27.8145C24.9657 28.559 24.8251 29.1996 24.2254 29.6618C23.6163 30.1312 22.9791 30.086 22.3407 29.6862C19.9852 28.2118 17.6238 26.746 15.2718 25.2654C15.0633 25.1346 14.9204 25.1493 14.7236 25.2728C12.3611 26.7557 9.99617 28.2338 7.62659 29.7058C6.63917 30.3195 5.51001 29.894 5.19493 28.8035C5.10239 28.4832 5.11996 28.1641 5.19142 27.8401C5.80636 25.0295 6.41545 22.2164 7.0339 19.4069C7.0831 19.1832 7.0503 19.0438 6.87812 18.8873C5.05203 17.2308 3.23414 15.5632 1.41508 13.8993C1.12928 13.6377 0.838785 13.3797 0.560011 13.1095C0.056343 12.6217 -0.127552 12.0214 0.0903138 11.338C0.303494 10.673 0.766163 10.2781 1.44553 10.2084C2.6965 10.08 3.94982 9.96631 5.20079 9.84772C6.75396 9.69979 8.30713 9.55186 9.86147 9.40882C10.0489 9.39171 10.1426 9.30735 10.2176 9.12275C11.301 6.45879 12.395 3.79972 13.4809 1.13698C13.769 0.430341 14.2656 0.0489024 15.0001 0V0.00244512ZM7.14049 27.7264C7.26934 27.6507 7.34547 27.6066 7.41927 27.5602C9.60964 26.1934 11.8047 24.8339 13.9869 23.4524C14.6791 23.0147 15.321 23.0147 16.0133 23.4524C18.179 24.8216 20.3577 26.1701 22.5317 27.5259C22.6254 27.5846 22.7191 27.6396 22.828 27.7044C22.8315 27.6409 22.8374 27.6201 22.8339 27.6017C22.2435 24.8889 21.652 22.1772 21.0616 19.4644C20.9164 18.7956 21.0476 18.2039 21.5477 17.743C23.1571 16.2613 24.7736 14.7881 26.3876 13.3112C26.8117 12.9237 27.2333 12.5337 27.7183 12.0875C27.2673 12.0471 26.8937 12.0165 26.52 11.9799C24.2582 11.7623 21.9987 11.5324 19.7357 11.3319C18.9626 11.2634 18.4566 10.8881 18.1568 10.146C17.1529 7.6679 16.1339 5.19588 15.1195 2.72264C15.0879 2.64562 15.0879 2.5417 14.9661 2.50503C14.6639 3.24345 14.3617 3.97821 14.0607 4.71419C13.3157 6.53581 12.5684 8.35498 11.8281 10.1778C11.5716 10.8087 11.1476 11.2243 10.4881 11.3062C9.63658 11.4114 8.78034 11.4786 7.92645 11.5593C6.31471 11.7097 4.70298 11.8576 3.09124 12.008C2.84643 12.0312 2.60163 12.0618 2.35682 12.0887C2.34745 12.1131 2.33925 12.1376 2.32988 12.162C2.39782 12.217 2.46927 12.2696 2.53486 12.3295C4.47925 14.1071 6.4213 15.8896 8.36921 17.6623C8.89045 18.1367 9.09074 18.7174 8.94667 19.4118C8.67961 20.6918 8.39029 21.9657 8.11269 23.2433C7.79175 24.7165 7.47315 26.1909 7.14049 27.7277V27.7264Z" fill="#D9D9D9"/>
</svg>
