<svg width="13" height="13" viewBox="0 0 13 13" fill="none" xmlns="http://www.w3.org/2000/svg">
<path d="M12.9996 6.51511C12.9996 7.75011 12.6785 8.89885 12.0173 9.93818C11.8388 10.2201 11.8095 10.4726 11.8808 10.7755C12.0152 11.352 12.1285 11.9348 12.2671 12.5113C12.3447 12.8311 12.3699 13.0267 11.9291 12.871C11.6205 12.7616 11.2805 12.7385 10.9635 12.648C10.063 12.3956 9.22552 12.4334 8.29144 12.7196C4.18568 13.9777 0.0316374 10.8408 0.000151471 6.54457C-0.0229382 3.23511 2.59669 0.31067 5.83974 0.0266418C9.32627 -0.278426 12.3678 2.06744 12.9157 5.47157C12.9723 5.82082 13.0038 6.16376 12.9996 6.51511ZM10.6361 11.2405C10.6067 11.0343 10.6067 10.8723 10.5563 10.7293C10.3905 10.2538 10.4724 9.88768 10.7725 9.44166C12.0215 7.5839 12.0823 5.61884 10.888 3.73374C9.7083 1.87177 7.9367 1.04494 5.73478 1.38156C3.60844 1.70556 2.17058 2.94687 1.55345 5.00661C0.93843 7.06213 1.44011 8.90095 3.02909 10.3505C4.56771 11.7539 6.39389 12.0947 8.33132 11.3499C9.0534 11.0722 9.702 10.9712 10.4178 11.2174C10.464 11.2342 10.5185 11.2279 10.6361 11.2405Z" fill="#848A7B"/>
</svg>
