<svg width="28" height="26" viewBox="0 0 28 26" fill="none" xmlns="http://www.w3.org/2000/svg">
<path d="M10.0382 0.752876C9.76629 0.75288 9.481 0.762124 9.19883 0.805972L9.19841 0.806038C7.5287 1.0684 6.24359 1.94406 5.39453 3.43254C4.08676 5.72334 2.78266 8.01577 1.49453 10.3186C0.498927 12.0963 0.503385 13.9127 1.49855 15.6896C2.33641 17.1857 3.18355 18.6772 4.03035 20.1681C4.48619 20.9707 4.94192 21.7731 5.39605 22.5759L5.3961 22.576C5.93259 23.5236 6.68074 24.2428 7.64963 24.723C8.4137 25.102 9.22333 25.2419 10.045 25.2462C10.9448 25.2512 11.8446 25.2502 12.7436 25.2491C13.1175 25.2487 13.4913 25.2482 13.8649 25.2482H13.8659C14.2078 25.2482 14.5499 25.2485 14.892 25.2487C15.8061 25.2493 16.7208 25.2499 17.6353 25.2462C17.9117 25.2452 18.2073 25.2392 18.4987 25.1941C20.1568 24.9394 21.4452 24.0853 22.2923 22.598L22.2923 22.598C22.4379 22.3422 22.5836 22.0864 22.7293 21.8306C23.9096 19.7582 25.0906 17.6847 26.2517 15.599L26.0333 15.4774L26.2517 15.599C27.2329 13.8364 27.1832 12.0386 26.2082 10.2983C25.2663 8.61507 24.3106 6.93929 23.3555 5.26455C23.0125 4.66316 22.6696 4.0619 22.3275 3.46049L22.3274 3.46028C22.0591 2.98974 21.7438 2.53543 21.3314 2.1527L21.3314 2.15267C20.2942 1.19056 19.058 0.753988 17.6769 0.751853L17.6768 0.751853C15.1305 0.748784 12.5843 0.749807 10.0382 0.752876ZM10.0382 0.752876C10.0382 0.752876 10.0383 0.752876 10.0383 0.752876V1.00288M10.0382 0.752876C10.0381 0.752876 10.0381 0.752876 10.038 0.752876L10.0383 1.00288M10.0383 1.00288C9.77095 1.00288 9.50057 1.01208 9.23722 1.05301L10.0383 1.00288ZM9.24224 2.12724L9.28656 2.37328C9.50504 2.33393 9.73764 2.33325 9.99209 2.33325L9.99238 2.33325C11.1953 2.33182 12.3992 2.33195 13.6034 2.33207C14.9799 2.33222 16.3566 2.33236 17.7322 2.33018L17.7322 2.33018C19.2034 2.3273 20.281 2.97646 21.0164 4.27033C22.306 6.54157 23.5953 8.81241 24.8777 11.0873C25.5985 12.3674 25.5958 13.6401 24.8738 14.9197C24.315 15.9098 23.7535 16.8998 23.1918 17.89C22.4686 19.165 21.7452 20.4406 21.0269 21.7174L21.0268 21.7174C20.4361 22.7679 19.5849 23.4103 18.427 23.625L18.4267 23.625C18.2078 23.6659 17.9752 23.6658 17.7191 23.6658L17.6976 23.6658L17.6968 23.6658C16.7362 23.6689 15.7758 23.6685 14.8148 23.6681C14.5776 23.668 14.3402 23.6679 14.1029 23.6679V23.6556H13.8529C13.4315 23.6556 13.0109 23.6571 12.5907 23.6587C11.6044 23.6623 10.6206 23.6659 9.63643 23.6495H9.63636C8.72222 23.6344 7.95405 23.2387 7.29795 22.5613L7.29789 22.5612C7.03004 22.2848 6.8269 21.9558 6.62326 21.5961L6.62324 21.596C6.25039 20.9378 5.87784 20.2792 5.50522 19.6204C4.62954 18.0723 3.75353 16.5236 2.87269 14.9782L2.87267 14.9781C2.11357 13.6466 2.11709 12.3452 2.87666 11.0138L2.87666 11.0138C2.93396 10.9134 2.99127 10.8129 3.04857 10.7124C4.24763 8.61047 5.4473 6.50742 6.62414 4.39117C7.23614 3.2918 8.08215 2.59175 9.28686 2.37323L9.24224 2.12724ZM9.24224 2.12724C9.4865 2.08325 9.74181 2.08325 9.99209 2.08325L9.24224 2.12724ZM18.4726 23.8708C18.2303 23.916 17.977 23.9159 17.7286 23.9158L17.6976 23.9158L18.4726 23.8708ZM18.4726 23.8708C19.7089 23.6416 20.6206 22.95 21.2448 21.84L18.4726 23.8708Z" fill="#D7D9C9" stroke="#D7D9C9" stroke-width="0.5"/>
<path d="M13.1314 6.82313L13.1314 6.82313C13.2063 6.482 13.5112 6.22345 13.8533 6.21558L13.8533 6.21558C14.1928 6.20779 14.5179 6.44874 14.6024 6.79466C14.6392 6.94363 14.6488 7.09671 14.6488 7.23252M13.1314 6.82313L14.6488 7.23282C14.6488 7.23272 14.6488 7.23262 14.6488 7.23252M13.1314 6.82313L13.1312 6.82419C13.1044 6.94851 13.0904 7.07758 13.0904 7.20499C13.0884 9.61547 13.0884 12.0249 13.0904 14.4354M13.1314 6.82313L13.0904 14.4354M14.6488 7.23252C14.6512 8.19369 14.6511 9.15426 14.6509 10.1148C14.6509 10.3549 14.6508 10.595 14.6508 10.8351V10.8361C14.6508 11.0727 14.6509 11.3093 14.6509 11.546C14.6511 12.493 14.6512 13.4405 14.6488 14.3879M14.6488 7.23252L14.6488 14.3879M14.6488 14.3879C14.6488 14.5302 14.6406 14.694 14.5985 14.8545C14.5066 15.2086 14.1767 15.4311 13.8239 15.4038C13.8238 15.4038 13.8237 15.4038 13.8235 15.4038L14.6488 14.3879ZM13.0904 14.4354C13.0904 14.559 13.1016 14.6921 13.1336 14.8226L13.0904 14.4353C13.0904 14.4354 13.0904 14.4354 13.0904 14.4354Z" fill="#D7D9C9" stroke="#D7D9C9" stroke-width="0.5"/>
<path d="M12.5713 18.4505C12.5726 17.7204 13.1406 17.1363 13.8692 17.1351L13.8692 17.1351C14.6093 17.1338 15.1745 17.7307 15.1721 18.4734L15.1701 19.0817L15.0667 18.9765L13.8562 19.7856C13.8562 19.7856 13.8561 19.7855 13.8561 19.7855C13.1357 19.7728 12.569 19.1745 12.5713 18.4505ZM12.5713 18.4505C12.5713 18.4504 12.5713 18.4503 12.5713 18.4503L12.8213 18.4511L12.5713 18.4507C12.5713 18.4506 12.5713 18.4506 12.5713 18.4505Z" fill="#D7D9C9" stroke="#D7D9C9" stroke-width="0.5"/>
</svg>
