<svg width="20" height="24" viewBox="0 0 20 24" fill="none" xmlns="http://www.w3.org/2000/svg">
<path d="M0.0216932 12.1279C0.0216932 8.53491 0.0481443 4.93755 0.0084676 1.3446C-0.000349443 0.352686 0.339107 -0.00881262 1.35307 4.42326e-06C6.85931 0.0352726 12.3656 0.0352726 17.8718 4.42326e-06C18.824 -0.0044041 19.1767 0.330644 19.1723 1.27848C19.1503 8.50405 19.1635 15.7296 19.1591 22.9508C19.1591 23.3035 19.2869 23.7531 18.8858 23.9427C18.4581 24.1455 18.2377 23.7046 17.982 23.4754C15.4692 21.227 12.9343 19.0007 10.4699 16.6951C9.76453 16.0338 9.39421 16.0779 8.70208 16.7259C6.26857 19.0051 3.75571 21.205 1.26049 23.4225C0.982751 23.6694 0.753508 24.1587 0.272979 23.9118C-0.123788 23.7046 0.0305102 23.255 0.0305102 22.9067C0.0216932 19.3137 0.0261017 15.7164 0.0261017 12.1234L0.0216932 12.1279ZM2.97099 18.2292C4.25388 17.083 5.52353 15.9456 6.79759 14.8082C7.07092 14.5658 7.34425 14.3189 7.6264 14.0852C8.95336 12.9743 10.2803 12.9699 11.5764 14.1029C13.1326 15.4607 14.6624 16.8406 16.2715 18.2733C16.3288 18.0176 16.3729 17.9162 16.3729 17.8104C16.3773 13.0448 16.3641 8.27921 16.3949 3.50919C16.3994 2.75533 16.0334 2.69802 15.4427 2.69802C11.5897 2.71125 7.73661 2.7377 3.88356 2.6848C2.92691 2.67157 2.73293 3.00221 2.74175 3.8795C2.78143 8.31448 2.75498 12.7539 2.76379 17.1888C2.76379 17.5063 2.6624 17.8501 2.96659 18.2248L2.97099 18.2292Z" fill="black"/>
</svg>
