<svg width="25" height="24" viewBox="0 0 25 24" fill="none" xmlns="http://www.w3.org/2000/svg">
<path d="M12.6797 0.00504184C15.9568 0.00504184 19.2298 -0.00458067 22.507 0.00504184C24.3979 0.0098531 25.242 1.67455 24.2738 3.57019C21.0049 9.94991 17.703 16.3056 14.4259 22.6757C13.9583 23.585 13.3252 24.1383 12.4025 23.9699C11.4466 23.7919 10.9336 23.0558 10.7267 21.9636C10.1019 18.6487 9.43568 15.3433 8.82743 12.0284C8.71157 11.3885 8.45916 10.9651 8.04125 10.5609C5.88546 8.43918 3.77105 6.2693 1.61112 4.15716C0.845631 3.4066 0.452544 2.56944 0.812531 1.43399C1.17666 0.279283 1.96283 -0.00939204 2.9559 0.000230474C6.19579 0.0339093 9.43982 0.0146644 12.6797 0.0146644V0.00504184ZM12.928 19.8034C15.4479 14.9199 17.8188 10.33 20.1898 5.73525C17.2396 7.32297 14.4548 9.10794 11.6659 10.8881C11.4011 11.0565 11.2894 11.2441 11.368 11.6531C11.8853 14.256 12.3694 16.8637 12.9238 19.8034H12.928ZM18.6836 3.00246H4.39172C6.23303 4.84036 7.91711 6.51949 9.60119 8.20824C9.83291 8.43918 10.0522 8.53059 10.346 8.33814C13.0397 6.60609 15.7417 4.88366 18.6836 3.00246Z" fill="black"/>
</svg>
