<svg width="19" height="5" viewBox="0 0 19 5" fill="none" xmlns="http://www.w3.org/2000/svg">
<g clip-path="url(#clip0_75_529)">
<path d="M19.0003 2.44782C19.0195 3.83207 17.9825 4.9484 16.6652 4.95652C15.3517 4.9687 14.2686 3.87672 14.2417 2.50871C14.2148 1.16911 15.3094 0.00811936 16.6037 5.68769e-07C17.9441 -0.00811822 18.9811 1.05138 19.0003 2.44782Z" fill="black"/>
<path d="M9.50227 4.95652C8.1849 4.95652 7.11719 3.84019 7.11719 2.46811C7.11719 1.10415 8.19643 -0.0081204 9.51379 -1.6111e-06C10.8388 0.00811718 11.895 1.11227 11.8912 2.48435C11.8874 3.85642 10.8235 4.96058 9.50227 4.95652Z" fill="black"/>
<path d="M2.31908 4.95237C0.997874 4.92396 -0.042959 3.78327 -0.000711131 2.41525C0.0453774 1.03506 1.11694 -0.0244445 2.44198 -8.81356e-05C3.74398 0.0283276 4.80402 1.18931 4.76561 2.54515C4.7272 3.92535 3.65181 4.98485 2.31524 4.95237H2.31908Z" fill="black"/>
</g>
<defs>
<clipPath id="clip0_75_529">
<rect width="19" height="4.95652" fill="white"/>
</clipPath>
</defs>
</svg>
