<svg width="45" height="14" viewBox="0 0 45 14" fill="none" xmlns="http://www.w3.org/2000/svg">
<path d="M32.7123 0.565267C31.6666 0.183939 30.5611 -0.00741404 29.4481 0.000219705C25.8486 0.000219705 23.3065 1.81468 23.2885 4.4193C23.266 6.33281 25.095 7.41113 26.4785 8.05047C27.8981 8.70781 28.3727 9.12203 28.3682 9.70959C28.3592 10.6033 27.2344 11.0085 26.1883 11.0085C24.7508 11.0085 23.9657 10.8082 22.7576 10.3062L22.3099 10.0968L21.7992 13.0954C22.6743 13.4601 24.2514 13.773 25.8801 13.8C29.7068 13.8 32.2084 11.9968 32.2377 9.22559C32.2692 7.69703 31.2793 6.54217 29.1961 5.58767C27.9296 4.96859 27.1444 4.55437 27.1444 3.92629C27.1444 3.37025 27.8171 2.77593 29.2231 2.77593C30.1589 2.75328 31.0889 2.92897 31.952 3.29146L32.2894 3.44229L32.8001 0.545006L32.7123 0.565267ZM42.0529 0.243348H39.2409C38.3657 0.243348 37.7066 0.484225 37.3242 1.35318L31.916 13.6132H35.7426L36.5075 11.6028L41.1778 11.6073C41.2881 12.0778 41.6255 13.6132 41.6255 13.6132H45L42.0529 0.243348ZM18.112 0.130788H21.7587L19.4776 13.5073H15.8354L18.112 0.126286V0.130788ZM8.85467 7.50343L9.23262 9.36066L12.7961 0.243348H16.6588L10.9199 13.5951H7.06619L3.91666 2.28968C3.86565 2.10326 3.74586 1.94316 3.58146 1.84169C2.44629 1.25489 1.24349 0.809583 0 0.51574L0.0494925 0.234341H5.91886C6.71524 0.265858 7.3564 0.51574 7.57011 1.36669L8.85242 7.51018L8.85467 7.50343ZM37.5536 8.86765L39.0069 5.12617C38.9889 5.1667 39.3061 4.35402 39.4906 3.852L39.7403 5.00686L40.5839 8.8654H37.5514L37.5536 8.86765Z" fill="black"/>
</svg>
