<svg width="30" height="24" viewBox="0 0 30 24" fill="none" xmlns="http://www.w3.org/2000/svg">
<path d="M15.0087 23.6143C11.2035 23.6143 7.39703 23.6096 3.59177 23.6178C2.54192 23.6202 1.64222 23.2882 0.912605 22.5281C0.320233 21.9099 0.00586507 21.1662 0.00469206 20.3123C-0.00234603 15.551 0 10.7886 0.00234603 6.02614C0.00234603 4.46721 1.28914 2.68071 3.43928 2.68305C4.88326 2.6854 6.32841 2.67719 7.77239 2.68892C8.01169 2.69126 8.07738 2.62557 8.09263 2.38393C8.17004 1.16634 9.24804 0.0930368 10.4574 0.0437702C12.4375 -0.0371678 14.4187 0.0203098 16.3987 0.0132718C17.4521 0.00975272 18.5055 -0.0242645 19.5588 0.0402513C20.6744 0.108286 21.7489 1.14992 21.8486 2.26546C21.8736 2.54385 22.0257 2.68305 22.3049 2.68305C23.7101 2.68305 25.1154 2.67719 26.5207 2.68423C28.1746 2.69244 29.5236 3.74111 29.899 5.30005C29.9693 5.59447 29.9869 5.89594 29.9858 6.19858C29.9834 10.8144 29.9553 15.4302 29.9998 20.0448C30.0163 21.7058 28.76 23.6448 26.4257 23.6225C22.6204 23.5862 18.814 23.6131 15.0087 23.6131V23.6143ZM14.9806 22.1082C18.7671 22.1082 22.5535 22.1082 26.3412 22.1082C26.5958 22.1082 26.8515 22.1 27.0943 22.0296C28.021 21.7621 28.5054 21.0595 28.5066 19.9616C28.5148 15.3938 28.5101 10.8273 28.5101 6.25957C28.5101 6.02497 28.489 5.79154 28.4268 5.56632C28.1899 4.71589 27.4872 4.20328 26.5441 4.20093C24.787 4.19624 23.031 4.20093 21.2738 4.19976C20.6826 4.19976 20.3835 3.89478 20.3811 3.29771C20.3811 3.11238 20.3811 2.92704 20.3811 2.7417C20.3788 1.91707 19.9659 1.503 19.1401 1.50183C17.3735 1.50065 15.607 1.50183 13.8404 1.50183C12.8257 1.50183 11.8099 1.49948 10.7952 1.503C10.095 1.50535 9.68792 1.89009 9.64335 2.58921C9.6281 2.82264 9.63866 3.05724 9.63514 3.29185C9.62458 3.90533 9.32546 4.20093 8.71432 4.20093C7.00641 4.20093 5.29851 4.22674 3.5906 4.19272C2.32843 4.16809 1.48738 5.06662 1.50498 6.2584C1.54486 8.90237 1.51788 11.5475 1.51788 14.1927C1.51788 16.1739 1.52023 18.1551 1.51553 20.1363C1.51553 20.4636 1.55542 20.778 1.70791 21.0701C2.09852 21.8184 2.7472 22.1093 3.56127 22.1093C7.3677 22.1093 11.1741 22.1093 14.9806 22.1093V22.1082Z" fill="#D7D9C9"/>
<path d="M14.6568 20.1399C10.8163 19.9885 7.9096 16.7545 7.98584 13.0443C8.07264 8.8496 11.5272 6.02029 15.1952 6.15167C19.3078 6.29947 22.0726 9.6449 21.9975 13.2777C21.9107 17.4806 18.3553 20.3569 14.6556 20.1399H14.6568ZM20.4562 13.2097C20.462 10.1563 18.0409 7.71647 14.9981 7.71178C11.9706 7.70708 9.55299 10.1188 9.52953 13.1675C9.50607 16.1798 11.9389 18.6572 14.9747 18.6501C18.0374 18.6431 20.4949 16.1915 20.4562 13.2085V13.2097Z" fill="#D7D9C9"/>
<path d="M25.1426 8.89413C24.3719 8.89531 23.7455 8.27713 23.7432 7.51115C23.7408 6.74869 24.3696 6.12347 25.1379 6.12347C25.9156 6.12347 26.5303 6.73461 26.5314 7.50763C26.5314 8.28299 25.9215 8.89296 25.1426 8.89531V8.89413Z" fill="#D7D9C9"/>
</svg>
