<svg width="33" height="31" viewBox="0 0 33 31" fill="none" xmlns="http://www.w3.org/2000/svg">
<path d="M19.0808 0.631725C22.6698 0.631725 26.26 0.649651 29.849 0.622763C31.3074 0.612519 32.3394 1.56514 32.616 2.64068C32.6774 2.87756 32.7158 3.11699 32.7146 3.36539C32.712 8.80712 32.7146 14.2501 32.712 19.6919C32.712 21.2386 31.5046 22.4396 29.9527 22.4409C22.7312 22.4434 15.511 22.4422 8.28953 22.4409C6.6186 22.4409 5.43807 21.2706 5.43295 19.5907C5.42526 16.5446 5.43038 13.4985 5.43038 10.4524C5.43038 8.13106 5.42654 5.80841 5.43166 3.48703C5.43422 2.16565 6.14485 1.16053 7.33563 0.755925C7.67622 0.640688 8.0232 0.630445 8.37532 0.630445C11.9438 0.630445 15.511 0.630445 19.0795 0.630445L19.0808 0.631725ZM6.81322 18.7226C6.96431 18.5792 7.05522 18.4947 7.14357 18.4076C8.77096 16.7815 10.3971 15.1528 12.0258 13.528C13.0104 12.5446 14.2281 12.5433 15.2063 13.5203C15.7338 14.0465 16.2677 14.5677 16.7837 15.1054C16.9451 15.2745 17.0232 15.2604 17.1653 15.0862C18.0782 13.9761 19.0027 12.875 19.9233 11.7713C20.7005 10.8391 21.47 9.90059 22.2549 8.97485C22.8106 8.318 23.5187 8.06064 24.3689 8.25654C24.9156 8.38202 25.2933 8.7495 25.6454 9.16179C27.4764 11.309 29.3138 13.4499 31.1525 15.5907C31.1998 15.6458 31.2319 15.752 31.3599 15.7098C31.3599 15.6163 31.3599 15.5216 31.3599 15.4255C31.3599 11.4742 31.3599 7.52159 31.3599 3.57026C31.3599 2.51904 30.8208 1.9864 29.7632 1.9864C22.648 1.9864 15.5315 1.99664 8.41629 1.97359C7.5533 1.97103 6.7953 2.49856 6.8017 3.58434C6.83243 8.4947 6.81578 13.4051 6.81578 18.3154V18.7226H6.81322ZM19.059 21.0849C22.639 21.0849 26.2178 21.0849 29.7978 21.0849C30.8042 21.0849 31.3548 20.5292 31.3586 19.5203C31.3599 19.0837 31.3509 18.647 31.3625 18.2104C31.3676 18.0158 31.3074 17.8698 31.1806 17.7226C28.9476 15.1208 26.7197 12.5152 24.4867 9.91211C24.0641 9.41915 23.6378 9.44348 23.2139 9.95436C21.3702 12.1733 19.5238 14.391 17.6749 16.6061C17.2537 17.1106 16.8798 17.1208 16.4163 16.6573C15.6852 15.9275 14.9553 15.1951 14.2242 14.4652C13.7991 14.0414 13.4496 14.0427 13.0206 14.4716C12.2742 15.2168 11.529 15.962 10.7825 16.7085C9.59939 17.8916 8.42141 19.0785 7.23063 20.2527C7.04497 20.4358 7.05266 20.5484 7.23576 20.7098C7.56738 21.0043 7.9579 21.0901 8.38684 21.0888C11.9451 21.0862 15.5033 21.0875 19.0616 21.0875L19.059 21.0849Z" fill="#D7D9C9"/>
<path d="M23.5563 30.6227C23.1184 30.6099 22.4987 30.3692 21.8649 30.2001C15.2926 28.4473 8.72284 26.6854 2.15051 24.93C0.546165 24.5023 -0.318111 23.0568 0.108264 21.4473C0.962296 18.2271 1.82785 15.0094 2.68956 11.7905C2.70109 11.7495 2.71645 11.7098 2.72926 11.6701C2.85986 11.2578 3.21197 11.0414 3.57945 11.149C3.95461 11.2591 4.14667 11.6189 4.03399 12.0363C3.1838 15.2143 2.32977 18.391 1.48086 21.5689C1.413 21.8237 1.32209 22.0785 1.35538 22.35C1.43349 22.9953 1.80736 23.4166 2.46549 23.5932C5.961 24.5305 9.45651 25.4665 12.9507 26.4012C16.395 27.3231 19.8393 28.245 23.2836 29.1643C24.2298 29.4165 24.8841 29.0414 25.1441 28.09C25.4795 26.8621 25.806 25.6317 26.1351 24.4012C26.2183 24.0875 26.3925 23.8621 26.7279 23.8096C27.007 23.7661 27.2286 23.8839 27.3873 24.1093C27.5423 24.3295 27.5077 24.5728 27.4424 24.816C27.2478 25.5331 27.0531 26.2501 26.8585 26.9671C26.7023 27.5407 26.5589 28.1182 26.3873 28.6867C26.0391 29.8468 24.9891 30.6201 23.5551 30.6214L23.5563 30.6227Z" fill="#D7D9C9"/>
<path d="M12.2524 4.72389C13.7556 4.72004 14.9758 5.92235 14.9937 7.42682C15.0116 8.90697 13.7709 10.1618 12.2844 10.1682C10.7722 10.1746 9.52637 8.94411 9.52637 7.44347C9.52637 5.95052 10.7517 4.72901 12.2524 4.72517V4.72389ZM13.6134 7.44859C13.616 6.69315 13.0142 6.08112 12.2664 6.07856C11.5161 6.076 10.9092 6.68163 10.9079 7.43579C10.9066 8.19379 11.5046 8.80454 12.2536 8.80966C13.0001 8.81478 13.6109 8.20275 13.6121 7.44859H13.6134Z" fill="#D7D9C9"/>
</svg>
