<svg width="37" height="29" viewBox="0 0 37 29" fill="none" xmlns="http://www.w3.org/2000/svg">
<path fill-rule="evenodd" clip-rule="evenodd" d="M10.4522 25.3833V26.8893V28.3954H9.79208V28.0297C9.58272 28.301 9.26505 28.4712 8.83327 28.4712C7.98195 28.4712 7.31459 27.8098 7.31459 26.8893C7.31459 25.9696 7.98195 25.3075 8.83327 25.3075C9.26505 25.3075 9.58272 25.4777 9.79208 25.749V25.3833H10.4522ZM8.91536 25.925C8.34397 25.925 7.99428 26.3599 7.99428 26.8893C7.99428 27.4188 8.34397 27.8537 8.91536 27.8537C9.46136 27.8537 9.82991 27.4375 9.82991 26.8893C9.82991 26.3412 9.46136 25.925 8.91536 25.925ZM32.759 26.8893C32.759 26.3599 33.1087 25.925 33.6801 25.925C34.2268 25.925 34.5947 26.3412 34.5947 26.8893C34.5947 27.4375 34.2268 27.8537 33.6801 27.8537C33.1087 27.8537 32.759 27.4188 32.759 26.8893ZM35.2178 24.1736V26.8893V28.3954H34.5569V28.0297C34.3475 28.301 34.0298 28.4712 33.598 28.4712C32.7467 28.4712 32.0793 27.8098 32.0793 26.8893C32.0793 25.9696 32.7467 25.3075 33.598 25.3075C34.0298 25.3075 34.3475 25.4777 34.5569 25.749V24.1736H35.2178ZM18.6461 25.894C19.0714 25.894 19.3447 26.1586 19.4145 26.6247H17.8392C17.9096 26.1897 18.1757 25.894 18.6461 25.894ZM17.147 26.8893C17.147 25.9502 17.7693 25.3075 18.6592 25.3075C19.5098 25.3075 20.0942 25.9502 20.1008 26.8893C20.1008 26.9773 20.0942 27.0596 20.0877 27.1411H17.8333C17.9286 27.6835 18.316 27.879 18.7413 27.879C19.0459 27.879 19.3702 27.765 19.6246 27.5638L19.9481 28.0492C19.5795 28.3579 19.1608 28.4712 18.7035 28.4712C17.7948 28.4712 17.147 27.8473 17.147 26.8893ZM26.6299 26.8893C26.6299 26.3599 26.9796 25.925 27.551 25.925C28.0968 25.925 28.4655 26.3412 28.4655 26.8893C28.4655 27.4375 28.0968 27.8537 27.551 27.8537C26.9796 27.8537 26.6299 27.4188 26.6299 26.8893ZM29.0878 25.3833V26.8893V28.3954H28.4277V28.0297C28.2176 28.301 27.9006 28.4712 27.4688 28.4712C26.6174 28.4712 25.9501 27.8098 25.9501 26.8893C25.9501 25.9696 26.6174 25.3075 27.4688 25.3075C27.9006 25.3075 28.2176 25.4777 28.4277 25.749V25.3833H29.0878ZM22.9018 26.8893C22.9018 27.8032 23.5431 28.4712 24.5216 28.4712C24.9788 28.4712 25.2834 28.3702 25.6136 28.1119L25.2965 27.5825C25.0487 27.7593 24.7883 27.8537 24.502 27.8537C23.9748 27.8473 23.5874 27.4692 23.5874 26.8893C23.5874 26.3094 23.9748 25.9314 24.502 25.925C24.7883 25.925 25.0487 26.0194 25.2965 26.1961L25.6136 25.6667C25.2834 25.4085 24.9788 25.3075 24.5216 25.3075C23.5431 25.3075 22.9018 25.9755 22.9018 26.8893ZM30.6123 25.749C30.7838 25.4842 31.0317 25.3075 31.4127 25.3075C31.5464 25.3075 31.7369 25.3328 31.883 25.3897L31.6795 26.0072C31.5399 25.9502 31.4003 25.9314 31.2666 25.9314C30.8347 25.9314 30.6188 26.2084 30.6188 26.7069V28.3954H29.958V25.3833H30.6123V25.749ZM13.7172 25.6227C13.3994 25.415 12.9618 25.3075 12.479 25.3075C11.7099 25.3075 11.2148 25.6732 11.2148 26.2719C11.2148 26.7631 11.5834 27.066 12.2624 27.1606L12.5743 27.2045C12.9363 27.2551 13.1072 27.3495 13.1072 27.5197C13.1072 27.7528 12.8658 27.8854 12.4151 27.8854C11.9578 27.8854 11.6278 27.7405 11.4053 27.5702L11.0941 28.0802C11.4562 28.3449 11.9134 28.4712 12.4086 28.4712C13.2853 28.4712 13.7934 28.0614 13.7934 27.488C13.7934 26.9585 13.3936 26.6816 12.7328 26.5871L12.4216 26.5424C12.136 26.5048 11.9069 26.4486 11.9069 26.2466C11.9069 26.0259 12.1228 25.894 12.4848 25.894C12.8724 25.894 13.2474 26.0389 13.4314 26.1522L13.7172 25.6227ZM21.4348 25.749C21.6057 25.4842 21.8536 25.3075 22.2345 25.3075C22.3683 25.3075 22.5588 25.3328 22.7048 25.3897L22.5012 26.0072C22.3617 25.9502 22.2221 25.9314 22.0883 25.9314C21.6565 25.9314 21.4407 26.2084 21.4407 26.7069V28.3954H20.7805V25.3833H21.4348V25.749ZM16.601 25.3833H15.5215V24.4693H14.8541V25.3833H14.2384V25.9819H14.8541V27.3561C14.8541 28.055 15.1274 28.4712 15.9083 28.4712C16.1946 28.4712 16.5247 28.3832 16.7341 28.2382L16.5436 27.677C16.3466 27.7903 16.1307 27.8473 15.9592 27.8473C15.6291 27.8473 15.5215 27.6453 15.5215 27.343V25.9819H16.601V25.3833ZM6.73076 26.5048V28.3954H6.06341V26.7191C6.06341 26.2084 5.84752 25.925 5.39677 25.925C4.95836 25.925 4.65375 26.2027 4.65375 26.7256V28.3954H3.9864V26.7191C3.9864 26.2084 3.7647 25.925 3.32629 25.925C2.87482 25.925 2.58265 26.2027 2.58265 26.7256V28.3954H1.91602V25.3833H2.57684V25.7547C2.82475 25.402 3.1417 25.3075 3.4659 25.3075C3.9297 25.3075 4.2598 25.5095 4.46917 25.8434C4.749 25.4208 5.14886 25.301 5.53638 25.3075C6.27349 25.314 6.73076 25.7929 6.73076 26.5048Z" fill="#231F20"/>
<path d="M23.5028 20.2649H13.498V2.42542H23.5028V20.2649Z" fill="#FF5F00"/>
<path d="M14.1326 11.3455C14.1326 7.72668 15.8402 4.50312 18.4995 2.42577C16.5549 0.906687 14.1006 0 11.4333 0C5.11875 0 0 5.0795 0 11.3455C0 17.6115 5.11875 22.691 11.4333 22.691C14.1006 22.691 16.5549 21.7843 18.4995 20.2652C15.8402 18.1879 14.1326 14.9644 14.1326 11.3455Z" fill="#EB001B"/>
<path d="M36.9999 11.3455C36.9999 17.6115 31.8811 22.691 25.5666 22.691C22.8992 22.691 20.445 21.7843 18.4995 20.2652C21.1595 18.1879 22.8673 14.9644 22.8673 11.3455C22.8673 7.72668 21.1595 4.50312 18.4995 2.42577C20.445 0.906687 22.8992 0 25.5666 0C31.8811 0 36.9999 5.0795 36.9999 11.3455Z" fill="#F79E1B"/>
</svg>
