<svg width="45" height="47" viewBox="0 0 45 47" fill="none" xmlns="http://www.w3.org/2000/svg">
<mask id="mask0_637_17471" style="mask-type:luminance" maskUnits="userSpaceOnUse" x="0" y="0" width="45" height="47">
<path d="M45 0H0V46.4328H45V0Z" fill="white"/>
</mask>
<g mask="url(#mask0_637_17471)">
<path d="M44.5499 23.2204C43.5143 21.4132 42.4378 19.6295 41.4347 17.8058C41.0576 17.1195 40.5947 16.8413 39.8094 16.8488C38.271 16.8634 36.7324 16.8661 35.1939 16.8661C37.4334 12.9242 39.5253 8.89838 41.936 5.05538C42.3668 4.36903 42.1877 4.16977 41.4386 4.17459C39.4938 4.18752 37.5367 4.30107 35.6076 4.1279C34.0497 3.9876 33.3403 4.74169 32.7155 5.95239C31.4487 8.40757 29.9885 10.7113 28.5545 13.3247C27.9067 14.5054 27.2221 15.6825 26.4904 16.8341C24.2374 16.8341 21.9843 16.8341 19.731 16.8341C18.556 16.8328 18.5282 16.7825 19.1288 15.7231C19.5672 14.951 20.0129 14.1838 20.466 13.4214C22.9619 9.23443 25.1694 4.87957 27.7622 0.747651C28.1629 0.109087 27.8927 0.00934603 27.2852 0.0146071C24.9971 0.0303904 22.7085 0.0531884 20.4219 0.00167362C19.6751 -0.0152057 19.2309 0.191949 18.8817 0.866025C18.1447 2.28937 17.3473 3.68268 16.5408 5.06919C14.4004 8.75151 12.2566 12.4319 10.1093 16.1104H0.71698C0.526809 16.1104 0.344427 16.186 0.209956 16.3205C0.0754842 16.4549 -6.10352e-05 16.6373 -6.10352e-05 16.8275L-6.10352e-05 22.9391C-6.10352e-05 23.1293 0.0754842 23.3117 0.209956 23.4461C0.344427 23.5806 0.526809 23.6562 0.71698 23.6562H5.68519C5.16566 24.6371 4.65183 25.6209 4.12879 26.5997C3.76227 27.2856 3.73794 27.8115 4.18907 28.4731C5.40351 30.2564 6.5456 32.0884 7.72058 33.8984C8.36308 34.8883 8.46918 34.8848 9.01568 33.8482C10.2266 31.5501 11.4373 29.252 12.6478 26.9538C12.9415 26.4373 13.2317 25.9185 13.5183 25.3974C13.8745 24.7465 14.2974 24.4642 15.0486 24.4802C17.0285 24.5227 19.0095 24.4935 20.9892 24.4966C22.3264 24.4988 22.3284 24.5023 21.6773 25.6313C19.2564 29.8296 16.8472 34.0347 14.3995 38.2171C14.0082 38.8861 13.9611 39.4102 14.3776 40.0909C15.4975 41.9266 16.5434 43.8074 17.6219 45.6679C18.212 46.6857 18.3168 46.6874 18.9017 45.6753C22.7256 39.0538 26.5658 32.4413 30.348 25.7963C30.8862 24.8504 31.468 24.4484 32.584 24.4701C36.3049 24.5415 40.0276 24.4981 43.7495 24.4975C45.2279 24.4975 45.2582 24.4563 44.5499 23.2197" fill="#606C38"/>
</g>
</svg>
