<svg width="206" height="212" viewBox="0 0 206 212" fill="none" xmlns="http://www.w3.org/2000/svg">
<mask id="mask0_1_39" style="mask-type:luminance" maskUnits="userSpaceOnUse" x="0" y="0" width="206" height="212">
<path d="M205.281 0H0V211.817H205.281V0Z" fill="white"/>
</mask>
<g mask="url(#mask0_1_39)">
<path d="M203.228 105.925C198.504 97.681 193.593 89.544 189.017 81.225C187.297 78.094 185.185 76.825 181.603 76.859C174.585 76.926 167.566 76.938 160.548 76.938C170.764 58.956 180.307 40.591 191.304 23.06C193.269 19.929 192.452 19.02 189.035 19.042C180.163 19.101 171.235 19.619 162.435 18.829C155.328 18.189 152.092 21.629 149.242 27.152C143.463 38.352 136.802 48.861 130.26 60.783C127.305 66.169 124.182 71.539 120.844 76.792C110.567 76.792 100.288 76.792 90.009 76.792C84.649 76.786 84.522 76.557 87.262 71.724C89.262 68.202 91.2953 64.702 93.362 61.224C104.748 42.124 114.818 22.258 126.646 3.409C128.474 0.496002 127.241 0.0410025 124.47 0.0650025C114.032 0.137003 103.592 0.241003 93.161 0.00600252C89.754 -0.0709975 87.728 0.874002 86.135 3.949C82.773 10.442 79.135 16.798 75.456 23.123C65.692 39.921 55.9123 56.7103 46.117 73.491H3.271C2.40348 73.491 1.57149 73.8356 0.958054 74.4491C0.344622 75.0625 0 75.8945 0 76.762L0 104.642C0 105.51 0.344622 106.342 0.958054 106.955C1.57149 107.568 2.40348 107.913 3.271 107.913H25.935C23.565 112.388 21.221 116.876 18.835 121.341C17.163 124.47 17.052 126.869 19.11 129.887C24.65 138.022 29.86 146.379 35.22 154.636C38.151 159.152 38.635 159.136 41.128 154.407C46.652 143.924 52.175 133.44 57.697 122.956C59.037 120.6 60.3607 118.233 61.668 115.856C63.293 112.887 65.222 111.599 68.649 111.672C77.681 111.866 86.718 111.733 95.749 111.747C101.849 111.757 101.858 111.773 98.888 116.923C87.844 136.075 76.854 155.258 65.688 174.337C63.903 177.389 63.688 179.78 65.588 182.885C70.697 191.259 75.468 199.839 80.388 208.326C83.08 212.969 83.558 212.977 86.226 208.36C103.67 178.154 121.188 147.989 138.442 117.676C140.897 113.361 143.551 111.527 148.642 111.626C165.616 111.952 182.598 111.754 199.577 111.751C206.321 111.751 206.459 111.563 203.228 105.922" fill="#9FA482"/>
</g>
</svg>
